PathFileType	4	(X/Y/Z)	C:/Users/beibeiliu/ov580/test_trc/User3\sequence.47_training_dense_right.trc
DataRate	CameraRate	NumFrames	NumMarkers	Units	OrigDataRate	OrigDataStartFrame	OrigNumFrames
120	120	24	19	mm	120	1	63
Frame#	Time	ThumbCMC			ThumbMCP			ThumbIP			ThumbTip			IndexMCP			IndexPIP			IndexTip			MiddleMCP			MiddlePIP			MiddleTip			RingMCP			RingPIP			RingTip			PinkyMCP			PinkyPIP			PinkyTip			BackHand1			BackHand2			BackHand3	
		X0	Y0	Z0	X1	Y1	Z1	X2	Y2	Z2	X3	Y3	Z3	X4	Y4	Z4	X5	Y5	Z5	X6	Y6	Z6	X7	Y7	Z7	X8	Y8	Z8	X9	Y9	Z9	X10	Y10	Z10	X11	Y11	Z11	X12	Y12	Z12	X13	Y13	Z13	X14	Y14	Z14	X15	Y15	Z15	X16	Y16	Z16	X17	Y17	Z17	X18	Y18	Z18	
0	0	106.995	22.8225	41.3202	82.0289	17.4386	18.7468	67.5252	10.7606	-7.14386	59.3268	3.17952	-26.7144	121.438	37.0247	-34.499	113.325	35.5896	-63.7946	104.933	34.6798	-84.2785	151.301	32.7189	-39.5866	146.894	31.2561	-68.4812	147.079	21.4473	-100.116	166.719	23.0539	-31.7569	170.563	22.361	-58.4491	175.244	14.9085	-85.8123	183.056	8.02451	-15.6766	194.668	4.15509	-35.677	204.763	-2.26703	-54.0645	166.272	30.3022	17.8368	167.366	33.8354	48.8754	135.927	41.7046	32.8366	
1	0.00833333	105.024	23.1838	37.4596	86.3536	16.1714	20.6454	69.5801	10.4736	-7.68412	56.5491	3.01751	-23.002	121.268	36.1002	-33.5459	111.533	37.1323	-61.9948	108.305	32.8838	-87.0395	147.534	33.4415	-37.8449	146.214	30.8359	-71.4026	146.843	22.2661	-101.03	164.894	24.6594	-33.117	174.582	21.3835	-54.0356	174.287	16.0992	-84.2826	182.529	8.25333	-14.2321	195.653	4.95117	-35.5812	202.083	-0.513836	-57.0819	165.779	30.2568	18.8786	167.222	33.0875	49.3916	135.449	42.8431	30.6471	
2	0.0166667	105.042	24.8723	42.7366	87.6661	17.6027	18.078	69.1382	12.6062	-6.68916	60.2158	5.67399	-24.5126	122.964	37.905	-34.0391	112.624	38.9257	-58.1568	110.814	35.2023	-83.8767	149.237	35.4774	-42.8801	147.335	32.8062	-70.8054	148.547	23.2895	-102.121	168.851	25.2479	-31.4874	171.983	24.2043	-54.1731	176.203	17.2314	-82.6438	184.439	11.5886	-15.2488	195.794	6.2617	-33.0163	203.422	2.89186	-52.8459	167.981	31.9981	18.0142	171.597	34.6384	46.9766	138.663	44.3175	32.3791	
3	0.025	104.834	25.8873	39.2263	86.0557	18.9849	20.2031	70.5512	13.8262	-8.76479	58.5652	6.54278	-25.9388	121.634	40.3501	-32.4638	112.981	40.2807	-62.6875	112.6	37.4746	-85.7937	153.662	36.6342	-41.1072	151.781	33.5597	-72.0533	151.324	24.787	-100.404	168.394	29.4177	-33.7022	174.369	27.0624	-58.7805	175.451	20.3973	-84.1192	184.727	13.8674	-15.0386	194.759	9.97116	-32.6143	205.641	5.18698	-57.7298	166.408	36.285	17.5664	170.224	34.1526	49.2711	135.486	45.5273	28.6135	
4	0.0333333	104.385	31.4523	37.5305	87.3582	23.6211	18.2749	70.6213	19.0011	-8.35685	61.2987	10.9321	-28.9853	122.887	48.8459	-36.1822	112.895	50.2621	-59.3457	112.084	46.4941	-84.8505	148.71	45.432	-38.3567	148.586	41.9047	-72.4846	146.855	35.6087	-99.8261	166.522	34.3704	-30.3795	170.126	34.472	-61.1596	173.403	27.5922	-87.6244	184.763	18.6679	-14.4987	194.968	17.3766	-40.3517	200.947	8.73233	-62.4353	167.128	39.9858	20.1449	174.241	38.6794	48.5894	141.264	48.7242	32.7747	
5	0.0416667	104.769	36.2951	36.4313	89.3288	27.9491	16.1515	73.8741	22.5739	-6.686	66.7422	15.1517	-29.7728	119.051	60.6563	-32.0915	114.975	62.5977	-60.2932	103.336	62.7745	-85.0991	149.535	55.2365	-37.4572	148.615	55.097	-68.4145	141.942	49.2875	-97.7834	163.162	44.5106	-34.4106	168.672	42.6907	-59.8728	163.278	34.5983	-85.4213	183.23	25.2775	-21.012	186.707	22.8403	-42.6052	187.648	7.29745	-69.5608	170.576	43.177	16.8399	171.697	41.1394	45.1196	141.59	54.9865	30.2858	
6	0.05	105.121	34.1582	37.3846	84.5394	26.8537	15.2663	72.2143	20.2994	-14.2695	72.7054	9.25724	-36.622	118.851	65.6579	-28.9988	108.258	72.1295	-56.1975	105.642	69.5714	-81.3116	145.539	61.588	-35.0214	144.397	63.5419	-65.6188	138.728	57.4544	-97.4629	163.063	44.2658	-34.0283	162.935	41.287	-61.2659	154.755	28.197	-85.1397	173.746	22.9804	-21.7938	175.6	12.2393	-48.8081	161.893	-5.60959	-67.2319	165.812	43.3165	20.6983	167.806	37.5435	47.9618	138.378	54.4988	33.255	
7	0.0583333	100.953	30.243	41.4475	83.3956	21.4691	12.2838	76.6923	12.5054	-17.3149	85.2989	0.367532	-41.3958	115.92	66.5537	-26.682	109.666	71.6463	-56.4342	101.779	72.8146	-81.5173	146.197	58.9778	-34.5332	144.404	63.4941	-64.9503	140.117	55.5649	-99.823	158.315	36.8754	-35.6383	155.029	29.0456	-63.099	138.862	13.2774	-80.2253	166.535	15.5315	-22.5191	159.867	3.57686	-45.8865	141.047	-19.4258	-55.8648	162.972	41.0173	17.1678	165.755	32.4612	50.4451	134.559	52.3276	37.6512	
8	0.0666667	100.566	27.642	35.4804	80.8814	16.9954	10.9611	77.6126	6.83512	-16.7238	86.12	-7.13976	-39.501	115.862	61.6842	-29.2742	108.51	70.214	-55.1838	103.892	70.4789	-78.0278	144.681	52.7106	-34.3305	142.695	55.1621	-68.9633	134.711	47.3107	-95.1851	150.788	29.6119	-33.2797	144.399	17.453	-60.7328	124.716	-9.04394	-71.2668	159.973	6.20362	-25.4896	145.109	-8.57574	-43.3352	129.196	-30.5403	-42.2765	163.664	33.5018	17.0857	164.893	26.9102	46.3191	134.63	46.3215	36.5933	
9	0.075	93.6881	27.4415	40.4367	76.0186	15.2407	11.1853	69.996	5.82727	-15.8834	78.614	-8.05468	-40.1996	114.294	58.0799	-29.6536	104.515	67.3828	-51.668	100.227	69.1862	-80.6571	136.451	49.5588	-38.9943	133.772	45.1346	-71.4383	122.012	31.9401	-96.3626	144.884	22.0857	-34.4245	134.249	7.38452	-59.0033	114.023	-18.4079	-62.1194	156.059	-0.0808092	-25.4304	140.419	-14.7984	-41.9718	119.016	-32.1889	-40.3889	153.563	30.7341	19.0504	159.749	24.6251	44.8155	132.747	44.9485	36.4755	
10	0.0833333	92.0368	26.0257	37.2598	69.7186	16.8413	9.93952	60.4624	6.60204	-16.7147	68.0365	-6.22537	-40.0625	107.962	55.3589	-26.3115	100.5	66.2225	-55.5202	101.391	68.4135	-77.9359	129.502	40.2273	-41.972	124.538	33.1859	-70.634	107.556	12.1716	-92.8357	139.664	17.4225	-38.8205	128.962	2.31776	-59.743	109.205	-22.5616	-62.588	153.942	-1.17005	-25.3423	141.343	-13.0695	-45.0666	118.542	-33.5809	-48.3971	149.652	28.6973	19.9909	155.259	24.4739	48.2692	126.229	41.4323	35.7022	
11	0.0916667	88.3448	28.3661	39.5983	72.0937	20.0951	11.5091	58.1766	12.3852	-19.8809	57.9233	0.860495	-42.9173	103.761	58.3654	-31.7896	100.16	65.677	-58.2272	96.6456	70.0188	-83.0737	120.827	39.4403	-42.5024	111.569	26.2337	-72.8685	91.8132	4.15497	-89.6605	136.807	21.0152	-40.5219	128.117	6.22568	-62.2645	107.078	-17.1115	-71.9627	150.85	6.99822	-29.6777	146.465	-7.25979	-51.7851	131.37	-25.8051	-62.7178	149.532	31.2223	12.2546	152.485	26.8242	43.933	121.008	46.959	29.6546	
12	0.1	84.6514	31.9619	36.8283	68.7885	23.715	9.50876	55.5393	16.9734	-15.8307	52.0354	8.28781	-39.6951	100.726	59.7419	-37.2969	96.0918	62.0622	-62.0112	89.1144	65.4295	-82.3767	115.298	38.6896	-49.6783	105.516	21.6935	-74.6579	87.3995	1.42525	-89.4788	133.182	23.331	-43.7667	126.503	8.62093	-67.8635	107.58	-6.87463	-82.7718	152.014	7.38292	-30.9427	147.935	-0.847707	-52.9161	137.519	-15.3037	-71.7267	147.148	34.0403	11.6673	150.056	26.6005	40.5647	121.334	49.0743	31.3363	
13	0.108333	86.6058	31.4799	33.1051	65.5105	25.9188	8.27489	54.5282	21.5071	-17.9939	47.3748	12.9198	-38.6358	101.655	53.6124	-37.2466	94.1464	56.8971	-64.1489	85.3769	58.3002	-90.2897	118.793	35.4664	-47.092	105.172	25.8017	-73.6448	84.2845	4.52607	-95.4259	132.089	18.7674	-45.8381	120.621	13.1459	-66.5517	110.043	-2.80393	-85.2429	148.598	1.57299	-28.317	144.911	-6.30704	-54.2013	138.251	-13.671	-71.6961	144.098	28.9879	13.4589	148.168	23.4135	38.3672	120.024	47.6775	30.3701	
14	0.116667	84.7144	36.5053	32.5718	61.7726	34.0832	9.80795	51.9861	29.9242	-18.2441	45.454	22.2649	-44.4024	101.516	57.3845	-41.5256	94.6932	57.7589	-67.6591	85.9113	60.3625	-88.7328	115.18	37.7382	-48.9084	106.731	28.7548	-74.5816	84.6799	14.5436	-99.3641	129.818	14.7203	-45.0435	118.66	7.88266	-70.4796	102.995	-3.69146	-89.9619	141.457	-2.73121	-29.4402	141.54	-12.5148	-51.0291	132.23	-20.7238	-75.1875	144.881	22.9535	10.2484	145.64	21.4125	39.4287	120.797	45.6203	24.9657	
15	0.125	89.5509	47.6968	31.4232	68.8396	46.8853	8.49766	54.6753	46.3116	-17.8211	47.2563	39.1073	-39.7838	109.008	60.0187	-42.1792	101.381	63.9577	-68.8667	95.4157	67.4448	-90.8737	117.628	35.44	-52.8201	103.105	31.986	-78.632	84.8287	23.6257	-100.739	123.776	14.5435	-46.6103	117.163	3.23634	-66.9677	97.744	-5.95235	-88.4963	135.084	-8.40552	-30.7542	130.053	-18.145	-51.1592	119.431	-25.8213	-72.6815	146.755	17.9381	9.35458	149.138	15.2368	35.2097	127.093	45.4411	26.067	
16	0.133333	105.109	51.9699	29.0121	83.9077	62.3265	4.63452	71.5409	61.469	-23.7268	58.9395	58.3148	-43.8145	122.87	54.0002	-47.638	116.825	59.9637	-72.3831	111.431	58.5104	-98.853	122.7	28.0161	-52.8412	106.484	26.0795	-78.3145	84.9388	17.9377	-100.403	121.196	5.8928	-43.3533	104.306	-1.25255	-68.5894	81.4384	-5.53962	-85.6841	123.946	-17.4665	-27.9032	110.496	-23.6777	-52.3989	93.2576	-28.7072	-69.5866	145.727	8.03185	7.49183	149.168	5.01197	36.4021	138.065	38.6601	22.3583	
17	0.141667	124.158	56.2347	22.8146	106.698	67.396	-2.04831	92.7727	77.023	-24.6427	79.6708	75.5045	-43.9864	133.418	36.9086	-52.5094	128.339	41.7645	-78.3175	119.279	44.4872	-100.997	121.845	11.6824	-56.6314	104.897	14.0162	-82.8152	80.4133	20.7786	-102.182	112.049	-1.67842	-46.1348	88.4675	-4.94237	-67.2774	65.4951	4.79129	-76.2277	104.442	-20.267	-29.3864	85.581	-22.7638	-48.3652	63.2808	-20.7686	-58.8116	137.555	-7.56846	6.72048	141.875	-7.32095	37.69	146.468	28.6158	17.8981	
18	0.15	140.082	51.636	23.8934	126.759	68.1721	-4.28312	115.029	81.9316	-26.1077	96.542	81.8783	-47.1738	137.051	23.9486	-50.1295	131.789	25.9577	-78.0323	114.988	33.4343	-103.676	118.352	2.2374	-55.6949	101.759	5.01645	-78.8146	71.4509	24.1569	-93.3735	97.1075	-7.71191	-38.8821	77.7055	1.79551	-61.6176	55.5781	27.7664	-60.1722	84.663	-14.8942	-21.0339	64.0208	-6.17636	-42.6442	46.7504	10.9398	-43.2065	123.481	-11.6877	6.97964	126.856	-10.7529	37.3635	144.693	11.3372	16.6083	
19	0.158333	144.896	40.7445	20.8408	134.261	58.9219	-4.53698	122.823	72.8311	-24.7908	99.7977	75.0303	-42.3796	132.615	12.8969	-46.0999	126.449	18.0035	-78.8707	110.652	40.5578	-91.5391	106.291	-3.7722	-52.2257	91.673	10.9351	-77.0354	72.0663	44.4912	-72.7529	86.3407	-2.50995	-41.309	70.4822	17.5382	-57.7571	63.5182	47.0255	-40.0676	74.2499	-4.47245	-18.5336	56.1088	10.4048	-36.4828	53.9887	41.2751	-30.6412	111.467	-15.0086	6.71505	114.737	-17.4099	36.5	138.825	0.585516	19.2953	
20	0.166667	142.031	32.1167	21.3035	137.658	54.2125	-0.199147	123.609	70.8094	-25.9285	96.5009	64.3901	-34.2204	124.095	8.4144	-47.5694	118.508	25.3851	-76.0148	106.559	53.783	-65.5795	105.488	2.08782	-50.0772	88.8363	22.8277	-71.9748	84.1698	56.6636	-44.1972	84.0377	3.22589	-40.9162	70.1404	29.9929	-51.3071	70.1119	49.0107	-26.1973	65.6518	0.505455	-20.2493	54.2136	22.2948	-31.8701	59.2393	48.4416	-14.8747	101.482	-19.4046	12.4424	107.356	-22.0318	39.7607	137.056	-2.95135	13.8794	
21	0.175	145.589	29.8414	20.3176	136.638	51.0023	-3.81153	123.996	67.4992	-27.9192	98.1238	65.3755	-34.6557	123.057	13.9868	-53.1692	115.536	37.0566	-71.1702	111.666	59.8514	-40.8413	102.061	10.0066	-53.4006	92.0669	41.5691	-62.4645	93.7029	54.7199	-25.1635	81.5376	8.63655	-42.2385	72.0878	34.7608	-46.54	79.286	49.4545	-16.114	67.2783	6.35873	-25.1101	61.8126	31.7483	-30.8174	70.6782	49.2033	-8.06821	105.55	-17.8258	9.76182	106.865	-20.7796	37.9538	133.984	-8.17529	17.0832	
22	0.183333	148.55	29.6504	20.3828	144.838	50.7719	-1.72149	132.617	64.7985	-31.1924	107.922	66.5261	-41.1311	126.586	21.1209	-54.2753	116.381	50.2214	-61.5365	116.944	59.6459	-30.145	103.089	16.153	-49.8957	93.109	47.976	-53.9377	103.19	48.8662	-13.5223	85.3448	13.2312	-39.3504	77.5926	43.9726	-41.9	87.0546	48.3226	-8.12209	74.5552	11.715	-27.915	64.9427	36.8407	-29.3129	80.3632	49.392	-4.35635	106.492	-16.4208	3.04956	110.34	-17.8029	37.9378	136.196	-5.42289	12.9684	
23	0.191667	154.193	30.5561	22.6454	154.156	49.0368	-2.81125	150.062	62.587	-27.3831	134.762	73.768	-49.2124	127.354	25.4485	-50.3521	120.516	59.6736	-55.7359	119.981	59.8204	-23.0251	108.809	24.0855	-49.8875	97.2042	55.7966	-46.0588	107.753	48.3813	-9.35748	88.4368	22.0169	-40.1252	79.4104	51.4754	-32.3143	97.9198	46.908	-2.83423	74.7519	15.236	-29.3659	70.2544	40.0717	-31.8227	81.4437	47.5191	-1.18795	105.346	-13.0564	1.31048	110.279	-18.2316	35.5278	138.897	-4.39086	15.8527	
